<svg width="30" height="50" viewBox="0 0 30 50" fill="none" xmlns="http://www.w3.org/2000/svg">
<path d="M9.87074 25.0106L28.5756 6.30488C29.0907 5.79106 29.374 5.10406 29.374 4.37154C29.374 3.63862 29.0907 2.95203 28.5756 2.4374L26.9366 0.799187C26.4224 0.28374 25.735 0 25.0025 0C24.2699 0 23.5833 0.28374 23.0687 0.799187L0.797572 23.0699C0.280905 23.5862 -0.00202163 24.276 1.08908e-05 25.0093C-0.00202163 25.7459 0.280499 26.435 0.797572 26.9516L23.048 49.2008C23.5626 49.7163 24.2492 50 24.9821 50C25.7146 50 26.4012 49.7163 26.9163 49.2008L28.5549 47.5626C29.6211 46.4963 29.6211 44.7606 28.5549 43.6947L9.87074 25.0106Z" fill="white"/>
</svg>
