<svg id="svg" version="1.1" xmlns="http://www.w3.org/2000/svg" xmlns:xlink="http://www.w3.org/1999/xlink" width="400" height="346.484375" viewBox="0, 0, 400,346.484375"><g id="svgg"><path id="path0" d="M0.511 0.703 C -0.175 1.461,1.367 5.259,3.369 7.739 C 3.804 8.278,4.159 8.905,4.159 9.133 C 4.159 9.361,4.723 10.402,5.411 11.446 C 6.099 12.491,7.186 14.383,7.825 15.652 C 8.464 16.920,9.110 18.012,9.260 18.078 C 9.410 18.144,9.982 19.133,10.532 20.277 C 11.082 21.421,11.717 22.513,11.942 22.704 C 12.168 22.894,12.945 24.220,13.670 25.650 C 14.394 27.080,15.104 28.328,15.247 28.423 C 15.390 28.518,15.923 29.420,16.431 30.427 C 16.939 31.435,17.880 33.080,18.522 34.085 C 19.165 35.089,19.918 36.455,20.196 37.120 C 20.474 37.785,20.918 38.557,21.183 38.835 C 21.448 39.114,22.280 40.550,23.032 42.028 C 23.784 43.505,24.501 44.714,24.625 44.714 C 24.749 44.714,25.446 45.917,26.173 47.388 C 26.900 48.858,27.781 50.370,28.132 50.746 C 28.483 51.123,28.769 51.611,28.769 51.831 C 28.769 52.052,29.394 53.198,30.156 54.378 C 30.919 55.558,31.951 57.337,32.449 58.331 C 32.947 59.325,33.552 60.373,33.794 60.659 C 34.036 60.945,34.752 62.192,35.385 63.432 C 36.019 64.671,36.666 65.738,36.822 65.803 C 36.979 65.868,37.407 66.511,37.775 67.230 C 38.237 68.137,38.914 68.761,39.975 69.260 C 40.818 69.656,41.725 70.183,41.991 70.432 C 42.257 70.681,43.485 71.418,44.721 72.071 C 45.956 72.725,47.045 73.362,47.140 73.488 C 47.236 73.614,48.484 74.322,49.913 75.061 C 51.343 75.800,52.591 76.509,52.686 76.637 C 52.782 76.765,53.951 77.455,55.286 78.170 C 56.620 78.885,58.102 79.738,58.579 80.065 C 59.055 80.393,60.302 81.086,61.348 81.606 C 62.395 82.125,63.331 82.674,63.428 82.824 C 63.525 82.974,64.775 83.700,66.205 84.438 C 67.634 85.175,68.897 85.907,69.011 86.064 C 69.125 86.222,70.294 86.902,71.611 87.576 C 72.927 88.250,74.081 88.923,74.177 89.070 C 74.272 89.218,75.364 89.847,76.603 90.468 C 77.842 91.089,78.934 91.712,79.029 91.852 C 79.125 91.992,80.217 92.621,81.456 93.251 C 82.695 93.880,83.997 94.643,84.350 94.945 C 84.703 95.247,86.035 96.040,87.310 96.707 C 88.585 97.374,90.147 98.232,90.780 98.614 C 95.884 101.684,97.646 102.693,98.591 103.088 C 99.190 103.338,99.910 103.760,100.189 104.025 C 100.469 104.289,101.866 105.121,103.295 105.873 C 104.724 106.626,106.078 107.423,106.304 107.646 C 106.530 107.869,107.778 108.562,109.077 109.185 C 110.376 109.808,111.552 110.510,111.690 110.746 C 111.829 110.981,112.453 111.379,113.077 111.629 C 113.701 111.879,115.025 112.597,116.020 113.223 C 117.014 113.849,118.641 114.773,119.635 115.277 C 120.628 115.780,121.644 116.395,121.891 116.642 C 122.139 116.890,123.397 117.603,124.689 118.228 C 125.980 118.853,127.088 119.492,127.152 119.648 C 127.216 119.804,128.386 120.493,129.752 121.178 C 131.118 121.864,132.314 122.545,132.409 122.693 C 132.504 122.840,133.440 123.396,134.489 123.927 C 135.537 124.458,137.212 125.421,138.211 126.067 C 139.210 126.714,140.560 127.464,141.210 127.736 C 141.860 128.008,142.602 128.436,142.860 128.688 C 143.117 128.940,144.483 129.741,145.896 130.469 C 147.308 131.196,148.778 132.084,149.163 132.443 C 149.548 132.801,150.186 133.193,150.581 133.313 C 150.976 133.433,152.405 134.215,153.755 135.050 C 155.106 135.885,156.369 136.568,156.563 136.568 C 156.757 136.568,157.541 137.022,158.307 137.577 C 159.072 138.131,160.694 139.100,161.912 139.729 C 163.129 140.359,164.301 141.046,164.517 141.255 C 164.733 141.465,165.981 142.173,167.290 142.828 C 168.599 143.484,169.723 144.138,169.786 144.281 C 169.850 144.424,170.942 145.067,172.213 145.709 C 173.484 146.351,175.378 147.442,176.422 148.135 C 177.466 148.827,178.507 149.393,178.735 149.393 C 178.963 149.393,179.590 149.749,180.129 150.184 C 180.668 150.619,182.045 151.433,183.189 151.993 C 184.333 152.553,185.322 153.138,185.388 153.293 C 185.454 153.449,186.431 154.042,187.559 154.612 C 188.688 155.182,190.460 156.190,191.496 156.853 C 192.533 157.516,193.513 158.059,193.675 158.059 C 194.259 158.059,198.254 160.853,198.603 161.505 C 198.989 162.226,199.129 198.117,198.750 199.105 C 198.535 199.665,197.574 199.883,197.574 199.372 C 197.574 199.217,196.326 198.476,194.801 197.725 C 193.276 196.975,192.028 196.263,192.028 196.142 C 192.028 196.022,190.819 195.329,189.341 194.604 C 187.864 193.878,186.604 193.162,186.543 193.012 C 186.481 192.862,185.467 192.252,184.290 191.657 C 183.112 191.062,181.915 190.371,181.629 190.121 C 181.343 189.872,180.095 189.159,178.856 188.537 C 177.617 187.915,176.525 187.297,176.430 187.163 C 176.334 187.029,175.087 186.315,173.657 185.574 C 172.227 184.834,171.008 184.119,170.947 183.985 C 170.886 183.850,169.638 183.148,168.174 182.425 C 166.709 181.701,165.458 180.987,165.392 180.838 C 165.326 180.688,164.312 180.086,163.139 179.499 C 161.965 178.912,160.771 178.229,160.485 177.981 C 160.199 177.733,158.842 176.968,157.469 176.281 C 156.097 175.594,154.884 174.888,154.775 174.712 C 154.666 174.535,153.411 173.830,151.985 173.144 C 150.560 172.459,149.393 171.785,149.393 171.646 C 149.393 171.508,148.263 170.851,146.880 170.186 C 145.498 169.521,144.314 168.855,144.248 168.706 C 144.182 168.557,143.222 167.977,142.113 167.417 C 141.004 166.857,139.533 166.016,138.843 165.548 C 138.153 165.080,136.852 164.349,135.952 163.924 C 135.052 163.499,134.051 162.925,133.728 162.649 C 133.405 162.372,132.088 161.616,130.802 160.969 C 129.516 160.322,128.377 159.663,128.270 159.505 C 128.164 159.346,126.906 158.625,125.477 157.903 C 124.047 157.181,122.799 156.473,122.704 156.329 C 122.608 156.186,121.573 155.587,120.404 154.999 C 119.234 154.411,118.064 153.726,117.804 153.477 C 117.544 153.229,116.271 152.493,114.974 151.842 C 113.678 151.191,112.535 150.525,112.434 150.362 C 112.333 150.198,111.092 149.507,109.676 148.826 C 108.260 148.145,107.013 147.444,106.905 147.269 C 106.797 147.095,105.745 146.470,104.567 145.881 C 103.390 145.291,102.192 144.608,101.906 144.362 C 101.620 144.115,100.414 143.422,99.225 142.821 C 98.037 142.220,96.867 141.541,96.626 141.311 C 96.384 141.081,95.110 140.352,93.792 139.691 C 92.475 139.030,91.215 138.306,90.991 138.082 C 90.768 137.859,89.428 137.095,88.014 136.385 C 86.599 135.675,85.364 134.983,85.269 134.847 C 85.173 134.712,83.925 133.997,82.496 133.258 C 81.066 132.519,79.818 131.811,79.723 131.685 C 79.068 130.819,76.183 129.734,76.461 130.458 C 76.651 130.955,75.714 131.503,75.208 131.190 C 74.589 130.808,75.546 133.092,76.910 135.251 C 77.694 136.494,78.336 137.665,78.336 137.854 C 78.336 138.043,78.802 138.841,79.372 139.627 C 79.941 140.413,80.964 142.148,81.644 143.483 C 82.324 144.818,83.030 146.003,83.213 146.116 C 83.396 146.229,83.770 146.858,84.044 147.514 C 84.319 148.170,85.072 149.524,85.718 150.523 C 86.364 151.522,87.327 153.198,87.858 154.246 C 88.389 155.295,88.940 156.231,89.082 156.326 C 89.224 156.421,89.900 157.615,90.585 158.979 C 91.270 160.343,91.965 161.513,92.130 161.579 C 92.295 161.645,93.002 162.894,93.701 164.356 C 94.400 165.817,95.101 167.065,95.259 167.128 C 95.418 167.192,96.138 168.414,96.861 169.844 C 97.584 171.274,98.301 172.523,98.454 172.620 C 98.607 172.718,99.162 173.654,99.687 174.700 C 100.212 175.747,101.145 177.391,101.760 178.354 C 102.376 179.317,103.107 180.649,103.385 181.314 C 103.662 181.979,104.109 182.751,104.376 183.029 C 104.644 183.308,105.389 184.549,106.033 185.789 C 106.677 187.028,107.404 188.276,107.648 188.562 C 107.891 188.847,108.571 190.017,109.158 191.161 C 110.964 194.683,112.586 196.495,115.078 197.774 C 116.317 198.410,117.643 199.179,118.024 199.483 C 118.406 199.787,119.731 200.531,120.971 201.137 C 122.210 201.743,123.432 202.439,123.687 202.684 C 123.942 202.929,125.085 203.594,126.227 204.161 C 127.370 204.728,128.721 205.485,129.230 205.844 C 129.739 206.203,131.014 206.927,132.062 207.453 C 133.111 207.979,134.047 208.523,134.142 208.662 C 134.237 208.801,135.485 209.516,136.915 210.250 C 138.345 210.985,139.817 211.865,140.187 212.205 C 140.556 212.546,141.028 212.825,141.236 212.825 C 141.443 212.825,142.758 213.538,144.158 214.409 C 145.558 215.280,147.036 216.121,147.442 216.278 C 147.848 216.434,149.343 217.281,150.764 218.160 C 152.185 219.038,153.520 219.757,153.732 219.757 C 153.943 219.757,154.418 220.036,154.787 220.377 C 155.157 220.718,156.629 221.597,158.059 222.332 C 159.489 223.067,160.737 223.782,160.832 223.922 C 160.927 224.062,162.174 224.781,163.603 225.520 C 165.032 226.259,166.411 227.060,166.666 227.302 C 166.922 227.543,168.089 228.216,169.261 228.797 C 170.432 229.378,171.471 229.966,171.570 230.104 C 171.669 230.242,172.920 230.959,174.350 231.698 C 175.780 232.437,177.028 233.146,177.123 233.274 C 177.218 233.402,178.310 234.036,179.549 234.683 C 180.789 235.329,181.882 235.967,181.979 236.099 C 182.076 236.232,183.012 236.770,184.059 237.295 C 185.106 237.820,186.777 238.771,187.774 239.408 C 188.770 240.045,189.957 240.707,190.410 240.879 C 190.864 241.052,192.082 241.735,193.118 242.397 C 194.154 243.060,195.714 243.937,196.585 244.347 C 197.480 244.767,198.342 245.469,198.565 245.959 C 198.978 246.866,199.163 279.830,198.761 280.879 C 198.514 281.523,197.027 280.974,194.298 279.230 C 193.336 278.615,191.691 277.682,190.645 277.156 C 189.598 276.631,188.662 276.076,188.565 275.924 C 188.468 275.771,187.261 275.072,185.884 274.372 C 184.506 273.672,183.290 272.954,183.181 272.778 C 183.072 272.601,181.937 271.947,180.660 271.324 C 179.382 270.701,178.282 270.068,178.217 269.918 C 178.151 269.769,177.059 269.123,175.790 268.484 C 174.522 267.844,172.629 266.758,171.585 266.069 C 170.541 265.381,169.500 264.818,169.272 264.818 C 169.044 264.818,168.416 264.461,167.878 264.025 C 167.339 263.588,165.845 262.707,164.558 262.066 C 163.271 261.426,162.218 260.801,162.218 260.677 C 162.218 260.554,161.010 259.844,159.532 259.101 C 158.055 258.358,156.767 257.638,156.671 257.502 C 156.576 257.367,155.411 256.689,154.084 255.998 C 152.757 255.306,151.588 254.628,151.486 254.490 C 150.926 253.738,146.211 251.678,146.306 252.227 C 146.433 252.956,146.230 253.380,145.754 253.380 C 144.969 253.380,146.087 256.257,147.504 257.886 C 147.753 258.172,148.434 259.367,149.016 260.542 C 149.599 261.717,150.274 262.887,150.515 263.142 C 150.756 263.396,151.559 264.814,152.301 266.291 C 153.042 267.769,153.767 268.977,153.913 268.977 C 154.059 268.977,154.345 269.406,154.549 269.931 C 155.015 271.125,156.259 273.322,157.279 274.751 C 157.708 275.352,158.059 275.984,158.059 276.155 C 158.059 276.327,158.549 277.239,159.148 278.182 C 159.747 279.125,160.783 280.910,161.450 282.149 C 162.117 283.388,162.764 284.480,162.887 284.575 C 163.010 284.671,163.718 285.919,164.461 287.348 C 165.204 288.778,166.002 290.139,166.235 290.373 C 166.468 290.607,167.154 291.814,167.759 293.056 C 168.363 294.297,169.002 295.402,169.177 295.510 C 169.353 295.619,169.890 296.539,170.371 297.556 C 170.852 298.573,171.637 299.982,172.115 300.687 C 172.594 301.392,173.443 302.876,174.003 303.985 C 174.562 305.093,175.142 306.054,175.292 306.120 C 175.441 306.185,176.161 307.448,176.891 308.925 C 177.621 310.403,178.359 311.612,178.530 311.612 C 178.702 311.612,178.934 311.963,179.046 312.392 C 179.157 312.821,179.780 314.029,180.429 315.078 C 181.078 316.127,182.099 317.920,182.698 319.064 C 183.297 320.208,183.988 321.378,184.235 321.664 C 184.481 321.950,185.174 323.156,185.775 324.345 C 186.376 325.534,187.061 326.704,187.296 326.945 C 187.532 327.186,188.325 328.553,189.058 329.983 C 189.792 331.412,190.499 332.660,190.629 332.756 C 190.759 332.851,191.478 334.096,192.227 335.523 C 192.975 336.949,193.859 338.419,194.190 338.790 C 194.522 339.160,194.891 339.787,195.010 340.182 C 195.540 341.937,198.714 346.622,199.136 346.272 C 199.370 346.078,199.923 345.960,200.364 346.010 C 200.985 346.080,201.345 345.785,201.944 344.714 C 202.371 343.951,202.872 343.157,203.056 342.949 C 203.240 342.741,203.972 341.493,204.682 340.176 C 205.392 338.859,206.244 337.392,206.575 336.915 C 206.906 336.438,207.602 335.192,208.122 334.146 C 208.642 333.099,209.192 332.163,209.345 332.066 C 209.498 331.969,210.215 330.719,210.938 329.289 C 211.661 327.860,212.377 326.639,212.530 326.577 C 212.682 326.515,213.315 325.423,213.936 324.151 C 214.557 322.878,215.191 321.783,215.344 321.717 C 215.497 321.652,216.146 320.560,216.785 319.291 C 217.425 318.022,218.511 316.130,219.199 315.086 C 219.887 314.042,220.451 313.010,220.451 312.793 C 220.451 312.576,220.777 311.983,221.177 311.475 C 221.576 310.967,222.457 309.504,223.133 308.222 C 223.810 306.941,224.472 305.815,224.604 305.719 C 224.736 305.624,225.449 304.376,226.188 302.946 C 226.927 301.516,227.636 300.269,227.764 300.173 C 227.892 300.078,228.582 298.908,229.297 297.574 C 230.012 296.239,230.865 294.757,231.192 294.281 C 231.519 293.804,232.212 292.558,232.732 291.511 C 233.252 290.465,233.800 289.529,233.950 289.432 C 234.101 289.334,234.829 288.085,235.569 286.655 C 236.310 285.225,237.028 284.005,237.166 283.943 C 237.304 283.881,237.889 282.902,238.466 281.766 L 239.515 279.702 239.515 187.225 L 239.515 94.748 240.385 93.931 C 241.366 93.009,242.890 92.049,245.927 90.440 C 247.071 89.834,248.085 89.225,248.180 89.087 C 248.276 88.948,249.438 88.262,250.763 87.563 C 252.088 86.863,253.414 86.084,253.709 85.833 C 254.004 85.581,254.983 85.028,255.883 84.603 C 256.783 84.178,258.050 83.470,258.698 83.030 C 259.346 82.590,260.716 81.813,261.741 81.305 C 262.766 80.796,263.761 80.192,263.951 79.964 C 264.142 79.736,265.507 78.961,266.984 78.242 C 268.462 77.522,269.671 76.805,269.671 76.648 C 269.671 76.029,272.380 75.245,272.594 75.802 C 272.702 76.083,272.790 108.045,272.790 146.829 L 272.790 217.344 273.654 217.128 C 274.269 216.973,274.578 217.071,274.732 217.470 C 274.963 218.074,276.318 216.087,278.607 211.785 C 279.267 210.546,279.904 209.454,280.024 209.359 C 280.364 209.089,281.766 206.552,282.371 205.113 C 282.672 204.398,283.051 203.813,283.214 203.813 C 283.376 203.813,284.067 202.654,284.748 201.238 C 285.429 199.822,286.117 198.613,286.277 198.552 C 286.438 198.490,287.073 197.426,287.691 196.187 C 288.308 194.948,289.012 193.700,289.255 193.414 C 289.498 193.128,290.131 192.036,290.661 190.988 C 291.191 189.939,291.848 188.817,292.122 188.494 C 292.396 188.171,293.146 186.862,293.789 185.584 C 294.431 184.307,295.173 183.012,295.436 182.706 C 295.700 182.399,296.441 181.135,297.083 179.896 C 297.725 178.657,298.353 177.565,298.479 177.470 C 298.605 177.374,299.292 176.205,300.007 174.870 C 300.722 173.536,301.575 172.054,301.902 171.577 C 302.230 171.101,302.923 169.854,303.443 168.808 C 303.962 167.761,304.511 166.825,304.661 166.728 C 304.811 166.631,305.537 165.381,306.275 163.951 C 307.012 162.522,307.744 161.259,307.901 161.145 C 308.059 161.031,308.739 159.862,309.413 158.545 C 310.087 157.229,310.758 156.075,310.904 155.979 C 312.340 155.039,312.305 156.351,312.305 103.506 C 312.305 74.570,312.437 53.077,312.618 52.602 C 312.920 51.808,316.215 49.662,320.611 47.397 C 321.653 46.861,322.589 46.305,322.691 46.162 C 322.793 46.019,324.047 45.297,325.477 44.558 C 326.906 43.820,328.164 43.084,328.270 42.924 C 328.377 42.764,329.516 42.104,330.802 41.457 C 332.088 40.810,333.405 40.054,333.728 39.778 C 334.051 39.501,335.052 38.927,335.952 38.502 C 336.852 38.077,338.153 37.346,338.843 36.878 C 339.533 36.410,340.984 35.579,342.068 35.032 C 345.528 33.285,345.234 30.599,345.234 63.935 C 345.234 92.934,345.235 92.959,345.947 93.146 C 346.418 93.269,346.594 93.522,346.467 93.893 C 346.061 95.076,348.065 92.261,349.276 89.948 C 349.974 88.614,350.656 87.444,350.790 87.348 C 350.925 87.253,351.640 86.005,352.381 84.575 C 353.121 83.146,353.843 81.924,353.987 81.860 C 354.130 81.796,354.808 80.627,355.493 79.260 C 356.179 77.894,356.864 76.698,357.015 76.603 C 357.167 76.508,357.798 75.416,358.418 74.177 C 359.037 72.938,359.738 71.690,359.975 71.404 C 360.212 71.118,360.898 69.953,361.500 68.816 C 362.101 67.679,362.794 66.509,363.041 66.217 C 363.288 65.924,364.002 64.671,364.628 63.432 C 365.254 62.192,365.984 60.930,366.250 60.626 C 366.516 60.322,367.179 59.230,367.722 58.200 C 369.098 55.590,371.827 50.857,372.217 50.402 C 372.395 50.194,373.137 48.868,373.864 47.455 C 374.592 46.043,375.359 44.711,375.569 44.495 C 375.780 44.279,376.488 43.032,377.144 41.722 C 377.800 40.413,378.511 39.228,378.724 39.090 C 378.937 38.951,379.316 38.327,379.564 37.703 C 379.813 37.079,380.524 35.789,381.143 34.835 C 381.763 33.882,382.701 32.244,383.228 31.196 C 383.755 30.147,384.422 29.009,384.709 28.667 C 384.997 28.324,385.708 27.150,386.290 26.057 C 386.872 24.964,387.660 23.551,388.042 22.918 C 390.257 19.240,391.192 17.634,392.200 15.771 C 393.975 12.494,396.470 8.184,396.842 7.751 C 398.393 5.950,400.018 1.715,399.449 0.959 L 398.856 0.173 359.981 0.080 L 321.106 -0.012 318.265 1.394 C 316.703 2.168,315.425 2.923,315.425 3.072 C 315.425 3.221,314.654 3.691,313.712 4.117 C 312.770 4.543,311.430 5.277,310.734 5.749 C 310.038 6.221,308.562 7.065,307.454 7.625 C 306.345 8.185,305.384 8.765,305.319 8.914 C 305.253 9.063,304.001 9.777,302.537 10.501 C 301.072 11.225,299.824 11.926,299.764 12.061 C 299.703 12.195,298.484 12.911,297.054 13.651 C 295.624 14.391,294.375 15.119,294.277 15.270 C 294.180 15.420,293.244 15.973,292.198 16.498 C 291.151 17.023,289.507 17.956,288.544 18.572 C 287.581 19.187,286.249 19.918,285.584 20.196 C 284.919 20.474,284.147 20.921,283.868 21.191 C 283.590 21.460,282.192 22.287,280.763 23.028 C 279.333 23.770,278.085 24.485,277.990 24.618 C 277.894 24.751,276.685 25.442,275.303 26.154 C 273.921 26.867,272.703 27.590,272.597 27.762 C 272.491 27.934,271.554 28.477,270.516 28.968 C 269.479 29.459,268.435 30.048,268.197 30.277 C 267.959 30.506,266.594 31.292,265.165 32.023 C 263.735 32.754,262.487 33.468,262.392 33.610 C 262.296 33.752,261.134 34.441,259.809 35.141 C 258.484 35.841,257.158 36.619,256.863 36.871 C 256.568 37.122,255.589 37.676,254.689 38.101 C 253.789 38.526,252.488 39.257,251.798 39.725 C 251.108 40.193,249.637 41.034,248.528 41.594 C 247.420 42.153,246.459 42.733,246.393 42.883 C 246.328 43.032,245.182 43.678,243.847 44.319 C 242.513 44.960,241.265 45.669,241.075 45.894 C 240.884 46.119,239.714 46.823,238.475 47.456 C 237.236 48.090,235.988 48.807,235.702 49.048 C 235.416 49.290,234.324 49.913,233.276 50.433 C 232.227 50.953,231.135 51.580,230.849 51.826 C 230.563 52.072,229.357 52.765,228.168 53.366 C 226.979 53.967,225.809 54.647,225.568 54.876 C 225.327 55.106,224.052 55.835,222.735 56.496 C 221.418 57.158,220.170 57.864,219.962 58.066 C 219.619 58.399,218.297 59.139,215.425 60.606 C 214.853 60.898,214.157 61.363,213.879 61.639 C 213.600 61.915,212.882 62.346,212.282 62.597 C 211.305 63.005,207.813 65.008,203.986 67.355 C 203.224 67.823,201.742 68.646,200.693 69.185 C 199.645 69.724,198.576 70.370,198.319 70.621 C 198.062 70.872,197.319 71.299,196.669 71.571 C 196.019 71.842,194.670 72.593,193.671 73.239 C 192.672 73.886,190.997 74.849,189.948 75.380 C 188.899 75.911,187.964 76.463,187.868 76.607 C 187.773 76.750,186.576 77.437,185.207 78.132 C 183.839 78.828,182.669 79.519,182.608 79.669 C 182.546 79.818,181.287 80.533,179.809 81.259 C 178.332 81.985,177.123 82.697,177.123 82.842 C 177.123 82.986,176.616 83.309,175.997 83.560 C 175.377 83.810,173.700 84.735,172.270 85.615 C 170.841 86.496,169.169 87.419,168.556 87.666 C 167.942 87.914,167.263 88.331,167.045 88.593 C 166.828 88.855,165.458 89.640,164.001 90.338 C 162.544 91.035,161.237 91.779,161.097 91.990 C 160.951 92.211,160.839 92.227,160.834 92.028 C 160.830 91.837,160.477 91.509,160.049 91.299 C 157.347 89.973,155.633 89.016,155.462 88.740 C 155.354 88.565,154.217 87.910,152.936 87.285 C 151.655 86.660,150.553 86.023,150.487 85.869 C 150.421 85.716,149.329 85.068,148.061 84.428 C 146.792 83.789,144.900 82.702,143.855 82.014 C 142.811 81.326,141.779 80.763,141.562 80.763 C 141.346 80.763,140.724 80.413,140.181 79.986 C 139.638 79.559,138.184 78.702,136.949 78.080 C 135.714 77.459,134.616 76.820,134.509 76.660 C 134.403 76.500,133.146 75.764,131.716 75.026 C 130.286 74.287,129.038 73.577,128.943 73.449 C 128.847 73.321,127.678 72.630,126.343 71.914 C 125.009 71.198,123.839 70.514,123.744 70.393 C 123.648 70.273,122.556 69.649,121.317 69.008 C 120.078 68.366,118.752 67.590,118.371 67.283 C 117.990 66.976,116.743 66.256,115.601 65.685 C 114.459 65.113,113.295 64.428,113.015 64.163 C 112.735 63.899,111.954 63.452,111.279 63.170 C 110.604 62.889,109.272 62.142,108.319 61.512 C 107.366 60.881,105.728 59.939,104.679 59.418 C 103.631 58.897,102.695 58.357,102.600 58.218 C 102.504 58.080,101.335 57.389,100.002 56.684 C 98.669 55.978,97.499 55.282,97.403 55.138 C 97.306 54.993,96.447 54.486,95.494 54.011 C 93.243 52.890,92.070 52.222,91.853 51.938 C 91.758 51.812,90.666 51.177,89.427 50.526 C 88.188 49.875,86.378 48.847,85.404 48.241 C 84.429 47.636,83.484 47.140,83.303 47.140 C 83.121 47.140,82.668 46.856,82.294 46.508 C 81.921 46.160,80.449 45.267,79.023 44.523 C 77.597 43.780,76.202 42.951,75.924 42.681 C 75.645 42.412,74.873 41.964,74.208 41.686 C 73.543 41.408,72.177 40.655,71.173 40.013 C 70.169 39.370,68.523 38.429,67.516 37.921 C 66.509 37.413,65.607 36.880,65.511 36.737 C 65.416 36.594,64.185 35.891,62.777 35.175 C 61.368 34.459,59.925 33.582,59.571 33.227 C 59.216 32.873,58.711 32.582,58.448 32.582 C 56.153 32.582,57.362 30.852,60.845 29.151 C 62.172 28.503,63.342 27.845,63.445 27.689 C 63.548 27.533,64.718 26.832,66.045 26.131 C 67.372 25.430,68.536 24.743,68.631 24.605 C 68.726 24.466,69.761 23.872,70.931 23.283 C 72.101 22.695,73.738 21.756,74.570 21.197 C 75.402 20.637,76.635 19.950,77.310 19.670 C 77.985 19.390,78.765 18.943,79.043 18.678 C 79.322 18.413,80.758 17.581,82.236 16.829 C 83.713 16.077,84.922 15.352,84.922 15.217 C 84.922 15.083,85.351 14.805,85.875 14.601 C 87.005 14.162,89.191 12.937,90.642 11.932 C 91.214 11.537,92.172 11.018,92.771 10.779 C 93.371 10.540,94.153 10.084,94.510 9.765 C 94.867 9.446,96.326 8.573,97.753 7.824 C 99.179 7.076,100.425 6.357,100.520 6.227 C 100.615 6.096,101.863 5.389,103.293 4.654 C 104.723 3.920,106.195 3.040,106.564 2.699 C 106.934 2.359,107.432 2.080,107.671 2.080 C 108.426 2.080,108.535 1.444,107.906 0.709 C 106.950 -0.407,1.521 -0.413,0.511 0.703 " stroke="none" fill="#fcfcfc" fill-rule="evenodd"></path><path id="path1" d="M108.713 0.518 C 108.822 0.803,109.051 0.950,109.222 0.844 C 109.711 0.542,109.584 0.000,109.023 0.000 C 108.714 0.000,108.592 0.203,108.713 0.518 M344.887 94.454 C 344.887 94.811,345.115 94.981,345.494 94.908 C 346.225 94.767,346.178 94.152,345.426 93.995 C 345.112 93.930,344.887 94.121,344.887 94.454 M74.870 130.372 C 74.870 130.984,74.957 131.036,75.386 130.679 C 75.908 130.246,75.797 129.636,75.196 129.636 C 75.017 129.636,74.870 129.967,74.870 130.372 M273.137 217.987 C 273.137 218.377,274.039 218.740,274.316 218.463 C 274.733 218.045,274.506 217.678,273.830 217.678 C 273.449 217.678,273.137 217.817,273.137 217.987 M144.887 252.195 C 144.887 252.497,145.073 252.682,145.299 252.607 C 145.942 252.393,146.048 251.646,145.436 251.646 C 145.134 251.646,144.887 251.893,144.887 252.195 " stroke="none" fill="#7c848c" fill-rule="evenodd"></path><path id="path2" d="" stroke="none" fill="#bcbcc4" fill-rule="evenodd"></path><path id="path3" d="" stroke="none" fill="#ccccd4" fill-rule="evenodd"></path><path id="path4" d="M370.104 0.259 C 372.821 0.318,377.266 0.318,379.983 0.259 C 382.699 0.201,380.477 0.153,375.043 0.153 C 369.610 0.153,367.387 0.201,370.104 0.259 M344.887 64.125 C 344.887 80.393,344.969 93.622,345.068 93.522 C 345.298 93.293,345.286 34.945,345.057 34.716 C 344.964 34.623,344.887 47.857,344.887 64.125 M76.040 130.221 C 76.167 130.448,75.995 130.794,75.657 130.991 C 75.320 131.187,75.199 131.350,75.390 131.353 C 76.257 131.366,76.787 130.720,76.289 130.257 C 75.983 129.972,75.892 129.959,76.040 130.221 " stroke="none" fill="#f4f4f4" fill-rule="evenodd"></path></g></svg>