<svg width="834" height="186" viewBox="0 0 834 186" fill="none" xmlns="http://www.w3.org/2000/svg">
<line x1="1" y1="156" x2="1" y2="2" stroke="#C4C4C4" stroke-width="2"/>
<path d="M755.84 173.662C754.232 173.2 753.06 172.633 752.324 171.963C751.595 171.286 751.23 170.452 751.23 169.463C751.23 168.343 751.676 167.419 752.568 166.689C753.467 165.954 754.632 165.586 756.064 165.586C757.041 165.586 757.91 165.775 758.672 166.152C759.44 166.53 760.033 167.051 760.449 167.715C760.872 168.379 761.084 169.105 761.084 169.893H759.199C759.199 169.033 758.926 168.359 758.379 167.871C757.832 167.376 757.061 167.129 756.064 167.129C755.14 167.129 754.417 167.334 753.896 167.744C753.382 168.148 753.125 168.711 753.125 169.434C753.125 170.013 753.369 170.505 753.857 170.908C754.352 171.305 755.189 171.67 756.367 172.002C757.552 172.334 758.477 172.702 759.141 173.105C759.811 173.503 760.306 173.968 760.625 174.502C760.951 175.036 761.113 175.664 761.113 176.387C761.113 177.539 760.664 178.464 759.766 179.16C758.867 179.85 757.666 180.195 756.162 180.195C755.186 180.195 754.274 180.01 753.428 179.639C752.581 179.261 751.927 178.747 751.465 178.096C751.009 177.445 750.781 176.706 750.781 175.879H752.666C752.666 176.738 752.982 177.419 753.613 177.92C754.251 178.415 755.101 178.662 756.162 178.662C757.152 178.662 757.91 178.46 758.438 178.057C758.965 177.653 759.229 177.103 759.229 176.406C759.229 175.71 758.984 175.173 758.496 174.795C758.008 174.411 757.122 174.033 755.84 173.662ZM769.766 180C769.661 179.792 769.577 179.421 769.512 178.887C768.672 179.759 767.669 180.195 766.504 180.195C765.462 180.195 764.606 179.902 763.936 179.316C763.271 178.724 762.939 177.975 762.939 177.07C762.939 175.97 763.356 175.117 764.189 174.512C765.029 173.9 766.208 173.594 767.725 173.594H769.482V172.764C769.482 172.132 769.294 171.631 768.916 171.26C768.538 170.882 767.982 170.693 767.246 170.693C766.602 170.693 766.061 170.856 765.625 171.182C765.189 171.507 764.971 171.901 764.971 172.363H763.154C763.154 171.836 763.34 171.328 763.711 170.84C764.089 170.345 764.596 169.954 765.234 169.668C765.879 169.382 766.585 169.238 767.354 169.238C768.571 169.238 769.525 169.544 770.215 170.156C770.905 170.762 771.263 171.598 771.289 172.666V177.529C771.289 178.499 771.413 179.271 771.66 179.844V180H769.766ZM766.768 178.623C767.334 178.623 767.871 178.477 768.379 178.184C768.887 177.891 769.255 177.51 769.482 177.041V174.873H768.066C765.853 174.873 764.746 175.521 764.746 176.816C764.746 177.383 764.935 177.826 765.312 178.145C765.69 178.464 766.175 178.623 766.768 178.623ZM776.572 166.875V169.434H778.545V170.83H776.572V177.383C776.572 177.806 776.66 178.125 776.836 178.34C777.012 178.548 777.311 178.652 777.734 178.652C777.943 178.652 778.229 178.613 778.594 178.535V180C778.118 180.13 777.656 180.195 777.207 180.195C776.4 180.195 775.791 179.951 775.381 179.463C774.971 178.975 774.766 178.281 774.766 177.383V170.83H772.842V169.434H774.766V166.875H776.572Z" fill="#C4C4C4"/>
<path d="M652.492 174.721H646.525V181H644.65V166.781H653.459V168.324H646.525V173.188H652.492V174.721ZM660.275 172.055C660.002 172.009 659.706 171.986 659.387 171.986C658.202 171.986 657.398 172.491 656.975 173.5V181H655.168V170.434H656.926L656.955 171.654C657.548 170.71 658.387 170.238 659.475 170.238C659.826 170.238 660.093 170.284 660.275 170.375V172.055ZM663.908 181H662.102V170.434H663.908V181ZM661.955 167.631C661.955 167.338 662.043 167.09 662.219 166.889C662.401 166.687 662.668 166.586 663.02 166.586C663.371 166.586 663.638 166.687 663.82 166.889C664.003 167.09 664.094 167.338 664.094 167.631C664.094 167.924 664.003 168.168 663.82 168.363C663.638 168.559 663.371 168.656 663.02 168.656C662.668 168.656 662.401 168.559 662.219 168.363C662.043 168.168 661.955 167.924 661.955 167.631Z" fill="#C4C4C4"/>
<path d="M523.475 167.324H518.904V180H517.039V167.324H512.479V165.781H523.475V167.324ZM527.107 170.713C527.908 169.73 528.95 169.238 530.232 169.238C532.465 169.238 533.592 170.498 533.611 173.018V180H531.805V173.008C531.798 172.246 531.622 171.683 531.277 171.318C530.939 170.954 530.408 170.771 529.686 170.771C529.1 170.771 528.585 170.928 528.143 171.24C527.7 171.553 527.355 171.963 527.107 172.471V180H525.301V165H527.107V170.713ZM542.84 178.955C542.137 179.782 541.105 180.195 539.744 180.195C538.618 180.195 537.758 179.87 537.166 179.219C536.58 178.561 536.284 177.591 536.277 176.309V169.434H538.084V176.26C538.084 177.861 538.735 178.662 540.037 178.662C541.417 178.662 542.335 178.148 542.791 177.119V169.434H544.598V180H542.879L542.84 178.955ZM552.459 171.055C552.186 171.009 551.889 170.986 551.57 170.986C550.385 170.986 549.581 171.491 549.158 172.5V180H547.352V169.434H549.109L549.139 170.654C549.731 169.71 550.571 169.238 551.658 169.238C552.01 169.238 552.277 169.284 552.459 169.375V171.055ZM560.281 177.197C560.281 176.709 560.096 176.331 559.725 176.064C559.36 175.791 558.719 175.557 557.801 175.361C556.889 175.166 556.163 174.932 555.623 174.658C555.089 174.385 554.692 174.059 554.432 173.682C554.178 173.304 554.051 172.855 554.051 172.334C554.051 171.468 554.415 170.736 555.145 170.137C555.88 169.538 556.818 169.238 557.957 169.238C559.155 169.238 560.125 169.548 560.867 170.166C561.616 170.785 561.99 171.576 561.99 172.539H560.174C560.174 172.044 559.962 171.618 559.539 171.26C559.122 170.902 558.595 170.723 557.957 170.723C557.299 170.723 556.785 170.866 556.414 171.152C556.043 171.439 555.857 171.813 555.857 172.275C555.857 172.712 556.03 173.04 556.375 173.262C556.72 173.483 557.342 173.695 558.24 173.896C559.145 174.098 559.878 174.339 560.438 174.619C560.997 174.899 561.411 175.238 561.678 175.635C561.951 176.025 562.088 176.504 562.088 177.07C562.088 178.014 561.71 178.773 560.955 179.346C560.2 179.912 559.22 180.195 558.016 180.195C557.169 180.195 556.421 180.046 555.77 179.746C555.118 179.447 554.607 179.03 554.236 178.496C553.872 177.956 553.689 177.373 553.689 176.748H555.496C555.529 177.354 555.77 177.835 556.219 178.193C556.674 178.545 557.273 178.721 558.016 178.721C558.699 178.721 559.246 178.584 559.656 178.311C560.073 178.031 560.281 177.66 560.281 177.197Z" fill="#C4C4C4"/>
<path d="M397.717 176.518L397.99 178.393L398.391 176.703L401.203 166.781H402.785L405.529 176.703L405.92 178.422L406.223 176.508L408.43 166.781H410.314L406.867 181H405.158L402.229 170.639L402.004 169.555L401.779 170.639L398.742 181H397.033L393.596 166.781H395.471L397.717 176.518ZM416.193 181.195C414.761 181.195 413.596 180.727 412.697 179.789C411.799 178.845 411.35 177.585 411.35 176.01V175.678C411.35 174.63 411.548 173.695 411.945 172.875C412.349 172.048 412.909 171.404 413.625 170.941C414.348 170.473 415.129 170.238 415.969 170.238C417.342 170.238 418.41 170.691 419.172 171.596C419.934 172.501 420.314 173.796 420.314 175.482V176.234H413.156C413.182 177.276 413.485 178.119 414.064 178.764C414.65 179.402 415.393 179.721 416.291 179.721C416.929 179.721 417.469 179.59 417.912 179.33C418.355 179.07 418.742 178.725 419.074 178.295L420.178 179.154C419.292 180.515 417.964 181.195 416.193 181.195ZM415.969 171.723C415.24 171.723 414.628 171.99 414.133 172.523C413.638 173.051 413.332 173.793 413.215 174.75H418.508V174.613C418.456 173.695 418.208 172.986 417.766 172.484C417.323 171.977 416.724 171.723 415.969 171.723ZM421.975 175.629C421.975 174.008 422.359 172.706 423.127 171.723C423.895 170.733 424.901 170.238 426.145 170.238C427.382 170.238 428.361 170.661 429.084 171.508V166H430.891V181H429.23L429.143 179.867C428.42 180.753 427.414 181.195 426.125 181.195C424.901 181.195 423.902 180.694 423.127 179.691C422.359 178.689 421.975 177.38 421.975 175.766V175.629ZM423.781 175.834C423.781 177.032 424.029 177.969 424.523 178.646C425.018 179.324 425.702 179.662 426.574 179.662C427.72 179.662 428.557 179.148 429.084 178.119V173.266C428.544 172.27 427.714 171.771 426.594 171.771C425.708 171.771 425.018 172.113 424.523 172.797C424.029 173.48 423.781 174.493 423.781 175.834Z" fill="#C4C4C4"/>
<path d="M283.475 167.324H278.904V180H277.039V167.324H272.479V165.781H283.475V167.324ZM290.887 178.955C290.184 179.782 289.152 180.195 287.791 180.195C286.665 180.195 285.805 179.87 285.213 179.219C284.627 178.561 284.331 177.591 284.324 176.309V169.434H286.131V176.26C286.131 177.861 286.782 178.662 288.084 178.662C289.464 178.662 290.382 178.148 290.838 177.119V169.434H292.645V180H290.926L290.887 178.955ZM299.783 180.195C298.351 180.195 297.186 179.727 296.287 178.789C295.389 177.845 294.939 176.585 294.939 175.01V174.678C294.939 173.63 295.138 172.695 295.535 171.875C295.939 171.048 296.499 170.404 297.215 169.941C297.938 169.473 298.719 169.238 299.559 169.238C300.932 169.238 302 169.691 302.762 170.596C303.523 171.501 303.904 172.796 303.904 174.482V175.234H296.746C296.772 176.276 297.075 177.119 297.654 177.764C298.24 178.402 298.982 178.721 299.881 178.721C300.519 178.721 301.059 178.59 301.502 178.33C301.945 178.07 302.332 177.725 302.664 177.295L303.768 178.154C302.882 179.515 301.554 180.195 299.783 180.195ZM299.559 170.723C298.829 170.723 298.217 170.99 297.723 171.523C297.228 172.051 296.922 172.793 296.805 173.75H302.098V173.613C302.046 172.695 301.798 171.986 301.355 171.484C300.913 170.977 300.314 170.723 299.559 170.723ZM312.156 177.197C312.156 176.709 311.971 176.331 311.6 176.064C311.235 175.791 310.594 175.557 309.676 175.361C308.764 175.166 308.038 174.932 307.498 174.658C306.964 174.385 306.567 174.059 306.307 173.682C306.053 173.304 305.926 172.855 305.926 172.334C305.926 171.468 306.29 170.736 307.02 170.137C307.755 169.538 308.693 169.238 309.832 169.238C311.03 169.238 312 169.548 312.742 170.166C313.491 170.785 313.865 171.576 313.865 172.539H312.049C312.049 172.044 311.837 171.618 311.414 171.26C310.997 170.902 310.47 170.723 309.832 170.723C309.174 170.723 308.66 170.866 308.289 171.152C307.918 171.439 307.732 171.813 307.732 172.275C307.732 172.712 307.905 173.04 308.25 173.262C308.595 173.483 309.217 173.695 310.115 173.896C311.02 174.098 311.753 174.339 312.312 174.619C312.872 174.899 313.286 175.238 313.553 175.635C313.826 176.025 313.963 176.504 313.963 177.07C313.963 178.014 313.585 178.773 312.83 179.346C312.075 179.912 311.095 180.195 309.891 180.195C309.044 180.195 308.296 180.046 307.645 179.746C306.993 179.447 306.482 179.03 306.111 178.496C305.747 177.956 305.564 177.373 305.564 176.748H307.371C307.404 177.354 307.645 177.835 308.094 178.193C308.549 178.545 309.148 178.721 309.891 178.721C310.574 178.721 311.121 178.584 311.531 178.311C311.948 178.031 312.156 177.66 312.156 177.197Z" fill="#C4C4C4"/>
<path d="M149.072 166.781L153.721 178.383L158.369 166.781H160.801V181H158.926V175.463L159.102 169.486L154.434 181H152.998L148.34 169.516L148.525 175.463V181H146.65V166.781H149.072ZM163.35 175.619C163.35 174.584 163.551 173.653 163.955 172.826C164.365 171.999 164.932 171.361 165.654 170.912C166.383 170.463 167.214 170.238 168.145 170.238C169.583 170.238 170.745 170.736 171.631 171.732C172.523 172.729 172.969 174.053 172.969 175.707V175.834C172.969 176.863 172.77 177.787 172.373 178.607C171.982 179.421 171.419 180.056 170.684 180.512C169.954 180.967 169.115 181.195 168.164 181.195C166.732 181.195 165.57 180.697 164.678 179.701C163.792 178.705 163.35 177.387 163.35 175.746V175.619ZM165.166 175.834C165.166 177.006 165.436 177.947 165.977 178.656C166.523 179.366 167.253 179.721 168.164 179.721C169.082 179.721 169.811 179.363 170.352 178.646C170.892 177.924 171.162 176.915 171.162 175.619C171.162 174.46 170.885 173.523 170.332 172.807C169.785 172.084 169.056 171.723 168.145 171.723C167.253 171.723 166.533 172.077 165.986 172.787C165.439 173.497 165.166 174.512 165.166 175.834ZM176.943 170.434L177.002 171.762C177.809 170.746 178.864 170.238 180.166 170.238C182.399 170.238 183.525 171.498 183.545 174.018V181H181.738V174.008C181.732 173.246 181.556 172.683 181.211 172.318C180.872 171.954 180.342 171.771 179.619 171.771C179.033 171.771 178.519 171.928 178.076 172.24C177.633 172.553 177.288 172.963 177.041 173.471V181H175.234V170.434H176.943Z" fill="#C4C4C4"/>
<path d="M7.83984 174.662C6.23177 174.2 5.0599 173.633 4.32422 172.963C3.59505 172.286 3.23047 171.452 3.23047 170.463C3.23047 169.343 3.67643 168.419 4.56836 167.689C5.4668 166.954 6.63216 166.586 8.06445 166.586C9.04102 166.586 9.91016 166.775 10.6719 167.152C11.4401 167.53 12.0326 168.051 12.4492 168.715C12.8724 169.379 13.084 170.105 13.084 170.893H11.1992C11.1992 170.033 10.9258 169.359 10.3789 168.871C9.83203 168.376 9.06055 168.129 8.06445 168.129C7.13997 168.129 6.41732 168.334 5.89648 168.744C5.38216 169.148 5.125 169.711 5.125 170.434C5.125 171.013 5.36914 171.505 5.85742 171.908C6.35221 172.305 7.1888 172.67 8.36719 173.002C9.55208 173.334 10.4766 173.702 11.1406 174.105C11.8112 174.503 12.306 174.968 12.625 175.502C12.9505 176.036 13.1133 176.664 13.1133 177.387C13.1133 178.539 12.6641 179.464 11.7656 180.16C10.8672 180.85 9.66602 181.195 8.16211 181.195C7.18555 181.195 6.27409 181.01 5.42773 180.639C4.58138 180.261 3.92708 179.747 3.46484 179.096C3.00911 178.445 2.78125 177.706 2.78125 176.879H4.66602C4.66602 177.738 4.98177 178.419 5.61328 178.92C6.2513 179.415 7.10091 179.662 8.16211 179.662C9.15169 179.662 9.91016 179.46 10.4375 179.057C10.9648 178.653 11.2285 178.103 11.2285 177.406C11.2285 176.71 10.9844 176.173 10.4961 175.795C10.0078 175.411 9.1224 175.033 7.83984 174.662ZM21.7656 179.955C21.0625 180.782 20.0306 181.195 18.6699 181.195C17.5436 181.195 16.6842 180.87 16.0918 180.219C15.5059 179.561 15.2096 178.591 15.2031 177.309V170.434H17.0098V177.26C17.0098 178.861 17.6608 179.662 18.9629 179.662C20.3431 179.662 21.2611 179.148 21.7168 178.119V170.434H23.5234V181H21.8047L21.7656 179.955ZM27.9863 170.434L28.0449 171.762C28.8522 170.746 29.9069 170.238 31.209 170.238C33.4421 170.238 34.5684 171.498 34.5879 174.018V181H32.7812V174.008C32.7747 173.246 32.599 172.683 32.2539 172.318C31.9154 171.954 31.3848 171.771 30.6621 171.771C30.0762 171.771 29.5618 171.928 29.1191 172.24C28.6764 172.553 28.3314 172.963 28.084 173.471V181H26.2773V170.434H27.9863Z" fill="#C4C4C4"/>
<line x1="1.99805" y1="154.75" x2="833.067" y2="154.75" stroke="#C4C4C4" stroke-width="2"/>
<line x1="631" y1="9.5" x2="824" y2="9.5" stroke="#55ACEE" stroke-width="3"/>
<line x1="531.438" y1="51.6091" x2="635.438" y2="9.60914" stroke="#55ACEE" stroke-width="3"/>
<line x1="404.882" y1="61.5046" x2="531.882" y2="51.5046" stroke="#55ACEE" stroke-width="3"/>
<line x1="342.975" y1="119.905" x2="405.975" y2="60.9051" stroke="#55ACEE" stroke-width="3"/>
<line x1="243.125" y1="2.0082" x2="347.125" y2="120.008" stroke="#55ACEE" stroke-width="3"/>
<line x1="154.013" y1="77.8703" x2="241.013" y2="1.87033" stroke="#55ACEE" stroke-width="3"/>
<line x1="119.061" y1="38.9393" x2="158.061" y2="77.9393" stroke="#55ACEE" stroke-width="3"/>
<line x1="20.9339" y1="135.945" x2="116.934" y2="38.9448" stroke="#55ACEE" stroke-width="3"/>
</svg>
